<?xml version="1.0" encoding="utf-8"?>
<!-- Generator: Adobe Illustrator 14.0.0, SVG Export Plug-In . SVG Version: 6.00 Build 43363)  -->
<!DOCTYPE svg PUBLIC "-//W3C//DTD SVG 1.1//EN" "http://www.w3.org/Graphics/SVG/1.1/DTD/svg11.dtd">
<svg version="1.1" id="Ruby" xmlns="http://www.w3.org/2000/svg" xmlns:xlink="http://www.w3.org/1999/xlink" x="0px" y="0px"
	 width="24px" height="24px" viewBox="0 0 24 24" enable-background="new 0 0 24 24" xml:space="preserve">
<path fill="#FFFFFF" d="M23.512,7.685l-3.188-3.967C20.324,3.718,17.938,0,12,0S3.676,3.718,3.676,3.718L0.488,7.685L0,9.503
	l0.492,1.834L12,24l11.508-12.663L24,9.503L23.512,7.685z M12,1.25c4.479,0,7.229,2.087,7.229,3.373c0,1.287-2.75,3.083-7.229,3.083
	S4.771,5.91,4.771,4.623C4.771,3.337,7.521,1.25,12,1.25z M1.576,10.8L1.263,9.633L1.602,8.37L3.22,6.355l-1.23,4.901L1.576,10.8z
	 M4.086,6.354c0.647,0.942,1.816,1.664,3.226,2.151l-4.464,2.776L4.086,6.354z M2.978,12.35L7.6,9.475l-1.57,6.25L2.978,12.35z
	 M8.394,9.753l2.718,5.914H6.908L8.394,9.753z M11.174,21.411l-3.821-4.224h3.821V21.411z M8.977,8.952
	C9.954,9.146,10.984,9.246,12,9.246s2.046-0.1,3.023-0.294L12,15.53L8.977,8.952z M12.827,21.411v-4.224h3.821L12.827,21.411z
	 M12.888,15.667l2.718-5.914l1.485,5.914H12.888z M17.971,15.725l-1.57-6.25l4.622,2.875L17.971,15.725z M16.688,8.505
	c1.409-0.487,2.578-1.208,3.226-2.151l1.238,4.927L16.688,8.505z M22.424,10.8l-0.413,0.457l-1.23-4.901l1.618,2.015l0.339,1.263
	L22.424,10.8z"/>
</svg>
